<svg xmlns="http://www.w3.org/2000/svg" width="55.9594" height="80.5772" viewBox="0 0 55.9594 80.5772">
  <g transform="translate(-104.0000 -209.0000)">
<path transform="matrix(1,0,0,-1,104,289.57716)" d="M27.986477-.000023C11.195935-.000023 0 11.160797 0 27.911767V80.57715H6.581075V46.97793C11.520265 52.561586 18.979714 55.823556 27.979714 55.823556 44.770254 55.823556 55.959447 44.656255 55.959447 27.911767 55.959447 11.167282 44.777017-.000023 27.986477-.000023ZM27.986477 5.791153C40.824316 5.791153 49.385137 14.636795 49.385137 27.911767 49.385137 41.18025 40.824316 50.03238 27.986477 50.03238 15.148638 50.03238 6.587838 41.186735 6.587838 27.911767 6.587838 14.636795 15.148638 5.791153 27.986477 5.791153Z" fill="#015aff"/>
  </g>
</svg>
